#!OML:ASF F:\VICON\USERDATA\INSTALL\rory3\rory3.ASF
:FULLY-SPECIFIED
:DEGREES
112
root -0.6491014687932601 17.662947341438556 29.47771738965088 2.792135199009518 2.07389726911432 -4.240884540570283
lfemur -29.859871181652373 4.643630559624471 -10.655350396238372
ltibia 72.9498033578113
lfoot 10.545500716535765 -19.877313931090086
ltoes -14.22443729830203
rfemur -18.00707355413316 3.4689207781002094 37.47145414396587
rtibia 4.555387998716114
rfoot -18.22102101251592 -14.664367717988917
rtoes -15.035901663757393
lowerback 1.0 -1.637188367200417 1.0755887247081366
upperback -0.6927874072671382 0.01030402489792015 3.3722082056339517
thorax -7.773307608275712 -0.20211467732867489 1.9362817115472595
lowerneck -18.358864135075212 -2.50791485224493 -2.4226592233956095
upperneck 12.623010856122997 -3.7732719438529854 -0.42935342776974084
head 7.023987395847523 -1.814472805968878 -0.22088839715788677
lclavicle 7.86069206479894e-15 -2.643132877527266e-14
lhumerus -57.43956264335256 -15.199272930544108 100.25453240966046
lradius 109.9695961394074
lwrist 51.06607110473749
lhand -30.135364059585225 2.2415725851918475
lfingers nan
lthumb -4.705062152181068 32.27234116106112
rclavicle 1.489211622808844e-14 -2.236929447381943e-14
rhumerus -48.34189297438087 5.193105333407433 -93.22638264155074
rradius 128.1807389927239
rwrist -12.250535381005943
rhand -23.870297805586198 1.0
rfingers nan
rthumb 2.835095853167596 17.390909012049207
113
root -0.6582664609644481 17.681548442694293 29.155492301491595 2.7511273951129107 1.8221974013856443 -4.450452324771877
lfemur -31.97498127644809 5.06901176732858 -10.826231021222549
ltibia 71.72652199763829
lfoot 8.466448441239823 -19.010155479116722
ltoes -12.376698609775472
rfemur -15.938992090697052 3.5042368497645078 37.871728352176405
rtibia 2.9119357148668996
rfoot -18.270085064633122 -14.116527163729646
rtoes -18.04878330140032
lowerback 1.0 -1.4206766764972434 0.8623761112186449
upperback -0.6885391836916086 0.2720861219485351 3.332162857039243
thorax -7.2113869987381705 -0.09880944092898919 1.842102785019034
lowerneck -18.586120450470087 -2.7162640071288537 -2.4089797657122425
upperneck 13.43288393491074 -4.034825193444368 -0.30526905133587157
head 7.325012054890446 -1.9657789221860509 -0.24708892681797523
lclavicle 7.948109970974705e-15 1.3294819834345995e-14
lhumerus -57.972698095896895 -15.739175165207856 100.55867841075369
lradius 110.61335313116003
lwrist 51.190297298852194
lhand -30.605688314866388 1.5534670594585345
lfingers nan
lthumb -5.114386773082407 31.59106866052583
rclavicle 1.4726744483558776e-14 1.7258963895947648e-14
rhumerus -48.50950404733309 4.899546085777528 -93.23597049377035
rradius 129.7667862294386
rwrist -17.104507131878687
rhand -23.53306262541177 1.0
rfingers nan
rthumb 3.1732833453068494 17.293216993345716
114
root -0.6534770561226685 17.694732854323416 29.24718541348699 2.618722382789273 1.991730070690651 -4.614582932483051
lfemur -33.93500787751373 5.029535587909875 -11.198450542593989
ltibia 70.09387211426204
lfoot 6.5870588795730125 -17.839375954702653
ltoes -12.339997146663391
rfemur -13.91155823782962 3.307697611239366 38.31203160306397
rtibia 1.4000830093845522
rfoot -17.458940874613383 -13.413632567859597
rtoes -21.284716747359315
lowerback 1.0 -1.3455599103670104 1.0543123609526415
upperback -0.8538589213177087 0.4328790398220155 3.234278887973724
thorax -7.205046583456708 -0.049562353070015275 1.6509145246639654
lowerneck -18.22982993398211 -2.924345366262707 -2.390436914010223
upperneck 14.293016573654368 -4.307780625725245 -0.17593763840495136
head 7.558848448193965 -2.129047439919931 -0.26295355448863844
lclavicle 8.777191312283275e-15 -4.0570048939252245e-17
lhumerus -58.55441761048179 -16.08574177202537 100.7180071583559
lradius 111.3122201026167
lwrist 50.995918903460904
lhand -30.2497293913901 2.2854890284126066
lfingers nan
lthumb -4.733128836518721 32.323339301534126
rclavicle 1.5725998902300713e-14 3.824853925939378e-15
rhumerus -48.88882636569393 4.75990952240685 -93.38456962339872
rradius 131.30670525124034
rwrist -21.1668695627894
rhand -23.632027007036825 1.0
rfingers nan
rthumb 3.0986841617609633 17.344470613724383
115
root -0.6263586086800835 17.757907184808065 29.424545470954175 3.019460405962605 2.028570364681071 -4.4058242790653885
lfemur -35.95204759459402 5.07839853303599 -12.11378571084556
ltibia 67.99600181530332
lfoot 4.759742134890394 -16.339390307661294
ltoes -13.978821687430091
rfemur -12.250066713022965 3.367215404221959 38.064122439996765
rtibia 0.028639607967079428
rfoot -15.85829196756243 -12.534058335618914
rtoes -25.042474902136764
lowerback 1.0 -1.1984399524242253 1.0175078408503015
upperback -1.1209579646652763 0.5986485898970404 2.9642234337400897
thorax -6.411002731718261 0.014949864134807922 1.4656541760049229
lowerneck -17.731904483822955 -3.1458556269121507 -2.3458707311199882
upperneck 14.773023718793297 -4.5941692162187575 -0.022519329418015932
head 7.642757660751752 -2.2968461951546093 -0.26756809303117
lclavicle 1.4991553517527958e-14 2.8260785152838198e-14
lhumerus -59.094056017389924 -16.244447883985362 100.77455121283825
lradius 112.01179586175635
lwrist 51.06339141722815
lhand -28.925188250765203 2.288694956618561
lfingers nan
lthumb -3.4465923061708237 32.290661037476504
rclavicle 2.1936688451865297e-14 3.183207627390497e-14
rhumerus -49.46737897339827 4.738701584781699 -93.68134521280514
rradius 133.0307600230369
rwrist -24.22936764952663
rhand -24.582199250129644 1.0
rfingers nan
rthumb 2.160023396898996 17.9750761431685
116
root -0.5737099884615277 17.862339401757048 28.48248239410595 3.928769899951416 2.056292432917116 -4.377208597859633
lfemur -37.903105985035666 5.059623472729021 -12.944527795998605
ltibia 65.4897602196178
lfoot 3.2954488148545473 -14.84963584639588
ltoes -15.820964982268308
rfemur -10.779970180057607 3.4435253934840877 37.76996862790237
rtibia -1.441235679215609
rfoot -13.501180742028644 -11.203956871499951
rtoes -27.715350642373604
lowerback 1.0 -1.0233844254233073 1.1831160681764188
upperback -1.4127264435381892 0.7102499155923067 2.6899437197365534
thorax -4.8916660247672255 0.052104586514586715 1.1822962852814043
lowerneck -18.23416787660996 -3.2654725444716317 -2.3010097710015307
upperneck 15.41552184691238 -4.746477488238449 0.2511971594678277
head 7.926070935747599 -2.3835754576484773 -0.21588978951668347
lclavicle 3.047466514066146e-14 1.336571750744674e-14
lhumerus -59.32623233436092 -16.099427711185935 100.55298708786422
lradius 112.53174771107338
lwrist 51.03949698139425
lhand -28.518103555878344 2.826666749673688
lfingers nan
lthumb -3.045934981815053 32.814402581313914
rclavicle 3.724305817555571e-14 1.6669838390695683e-14
rhumerus -49.80015005963603 4.878544281710827 -93.94920305804969
rradius 134.35924876548907
rwrist -26.10654540386966
rhand -24.57152770189713 1.0
rfingers nan
rthumb 2.1274925720964877 19.032262764392854
117
root -0.5393279374552934 17.96124943321506 28.986232984164143 3.5990195845450197 2.0768284031909197 -4.698569342717167
lfemur -38.92503838006374 4.727506466231003 -13.387325136504812
ltibia 62.50239333204982
lfoot 1.6714062302143815 -13.646978430214878
ltoes -19.413908842386512
rfemur -8.47808701726624 3.0360028152861345 37.87671825287844
rtibia -2.9150299054732827
rfoot -10.617967802246215 -9.473476358394867
rtoes -29.253754541372146
lowerback 1.0 -0.9316644331364465 1.5774577045531093
upperback -1.4875445669894878 0.834662372237615 2.522850939485444
thorax -5.06887293051964 0.09755583607035029 0.9420569096075142
lowerneck -17.956701594274573 -3.329302729538654 -2.3244524243487987
upperneck 15.807193001180744 -4.835542475311337 0.6225097009087657
head 8.029761298257046 -2.440214949256786 -0.098058726929529
lclavicle 1.7517034545077e-14 6.519642749633945e-15
lhumerus -59.58819400150648 -15.814935033432356 100.32632821158704
lradius 112.92261162211565
lwrist 50.805184797714325
lhand -29.51474505068412 4.993620650515807
lfingers nan
lthumb -3.9754711409252272 35.10785987204648
rclavicle 2.4379446379076516e-14 9.801476951605561e-15
rhumerus -50.1386541238323 5.096938570463318 -94.16311605505325
rradius 135.33473893288365
rwrist -25.82751503409476
rhand -24.173494876894004 1.0
rfingers nan
rthumb 2.4958404723693537 18.30121389418224
118
root -0.5560981600159508 17.989122944168315 29.16905196245848 2.2419363035269533 1.8364752843311387 -4.4931231777584255
lfemur -38.93969717676835 4.328871585638333 -14.027634463525239
ltibia 58.84516959569005
lfoot 2.035158304640036 -13.006038919765478
ltoes -18.63601007424574
rfemur -5.535485420530929 2.489930536831277 37.602406513010365
rtibia -4.644897983645784
rfoot -7.0482107218383785 -7.550503240225581
rtoes -29.50428831088488
lowerback 1.0 -0.813562307263272 1.5016749870668007
upperback -1.3331941047080984 1.0393321598799723 2.3603939175988478
thorax -6.424429655188796 0.1901592580231498 0.8280437408901731
lowerneck -17.293826929151383 -3.449438451700935 -2.374491983535912
upperneck 16.264104558623306 -4.952125102834399 0.7948085936124321
head 8.098898505971558 -2.5217962024293343 -0.04148178595007568
lclavicle 1.7021271978198614e-15 1.961360792202381e-14
lhumerus -60.233555807332785 -15.358784134126148 100.2372664984095
lradius 113.4052940006245
lwrist 50.911524838534625
lhand -29.3447656809774 5.083442394392312
lfingers nan
lthumb -3.788037452818085 35.28814365453147
rclavicle 8.801506109497975e-15 2.3047592539071408e-14
rhumerus -50.67907943977172 5.276333283250823 -94.20349781926359
rradius 136.2379771483166
rwrist -23.890337306514887
rhand -23.037210225209577 1.0
rfingers nan
rthumb 3.6309483773555957 15.482151249999175
119
root -0.5465252933275278 18.018621948881265 31.340760651615447 2.2575576547031293 1.9623194104819097 -4.139945689492264
lfemur -39.56007797135405 3.780967383449668 -14.92451374093578
ltibia 55.256955002548374
lfoot 1.36289825987024 -11.971789643493132
ltoes -20.440301168664654
rfemur -3.7052519090467833 1.939901854665201 36.811601615777526
rtibia -6.347331817067278
rfoot -2.728472705817508 -5.415269027617059
rtoes -28.755041130923203
lowerback 1.0 -0.7715316192638237 1.269177837697827
upperback -1.4709651805806128 1.1147978177036257 2.1368075030613563
thorax -6.225623628085639 0.22191854174842465 0.7501924172713292
lowerneck -17.29178583845681 -3.5007196439402564 -2.2583984057024815
upperneck 16.64282239475687 -4.98291763053223 0.7430079259993132
head 8.225959526921626 -2.566889414053028 -0.08253949052280796
lclavicle -6.947033062075255e-15 -1.2985020216121377e-14
lhumerus -60.766279907865474 -14.74713136034959 100.02171499043598
lradius 113.95278194857205
lwrist 51.56004168100825
lhand -27.63381121713935 2.443616599817344
lfingers nan
lthumb -2.052807929667631 32.70872721103573
rclavicle 2.30643206177632e-16 -9.517451842753741e-15
rhumerus -51.14567767802159 5.606519946075723 -94.25512674703329
rradius 137.0104120237482
rwrist -19.3158661551077
rhand -22.468920100453296 1.0
rfingers nan
rthumb 4.183845316326675 15.011623527253574
